<mxfile host="app.diagrams.net" modified="2020-09-08T10:53:49.072Z" agent="5.0 (Macintosh; Intel Mac OS X 10_14_6) AppleWebKit/537.36 (KHTML, like Gecko) Chrome/85.0.4183.83 Safari/537.36" etag="EZFdzlkIS3jL9giHJB43" version="13.6.6" type="github">
  <diagram id="C5RBs43oDa-KdzZeNtuy" name="Page-1">
    <mxGraphModel dx="815" dy="541" grid="1" gridSize="10" guides="1" tooltips="1" connect="1" arrows="1" fold="1" page="1" pageScale="1" pageWidth="827" pageHeight="1169" math="0" shadow="0">
      <root>
        <mxCell id="WIyWlLk6GJQsqaUBKTNV-0" />
        <mxCell id="WIyWlLk6GJQsqaUBKTNV-1" parent="WIyWlLk6GJQsqaUBKTNV-0" />
        <mxCell id="MDFC5IUzmAGrzWkf0rjv-6" value="" style="edgeStyle=orthogonalEdgeStyle;rounded=0;orthogonalLoop=1;jettySize=auto;html=1;" edge="1" parent="WIyWlLk6GJQsqaUBKTNV-1" source="WIyWlLk6GJQsqaUBKTNV-3" target="MDFC5IUzmAGrzWkf0rjv-0">
          <mxGeometry relative="1" as="geometry" />
        </mxCell>
        <mxCell id="WIyWlLk6GJQsqaUBKTNV-3" value="splash" style="rounded=1;whiteSpace=wrap;html=1;fontSize=12;glass=0;strokeWidth=1;shadow=0;" parent="WIyWlLk6GJQsqaUBKTNV-1" vertex="1">
          <mxGeometry x="160" y="80" width="120" height="40" as="geometry" />
        </mxCell>
        <mxCell id="MDFC5IUzmAGrzWkf0rjv-2" style="edgeStyle=orthogonalEdgeStyle;rounded=0;orthogonalLoop=1;jettySize=auto;html=1;exitX=0.5;exitY=1;exitDx=0;exitDy=0;entryX=0.5;entryY=0;entryDx=0;entryDy=0;" edge="1" parent="WIyWlLk6GJQsqaUBKTNV-1" source="MDFC5IUzmAGrzWkf0rjv-0" target="MDFC5IUzmAGrzWkf0rjv-1">
          <mxGeometry relative="1" as="geometry" />
        </mxCell>
        <mxCell id="MDFC5IUzmAGrzWkf0rjv-0" value="BaseReactActivity" style="rounded=1;whiteSpace=wrap;html=1;fontSize=12;glass=0;strokeWidth=1;shadow=0;" vertex="1" parent="WIyWlLk6GJQsqaUBKTNV-1">
          <mxGeometry x="160" y="170" width="120" height="40" as="geometry" />
        </mxCell>
        <mxCell id="MDFC5IUzmAGrzWkf0rjv-10" value="" style="edgeStyle=orthogonalEdgeStyle;rounded=0;orthogonalLoop=1;jettySize=auto;html=1;" edge="1" parent="WIyWlLk6GJQsqaUBKTNV-1" source="MDFC5IUzmAGrzWkf0rjv-1" target="MDFC5IUzmAGrzWkf0rjv-5">
          <mxGeometry relative="1" as="geometry" />
        </mxCell>
        <mxCell id="MDFC5IUzmAGrzWkf0rjv-1" value="ViewLanuch" style="rounded=1;whiteSpace=wrap;html=1;fontSize=12;glass=0;strokeWidth=1;shadow=0;" vertex="1" parent="WIyWlLk6GJQsqaUBKTNV-1">
          <mxGeometry x="160" y="250" width="120" height="30" as="geometry" />
        </mxCell>
        <mxCell id="MDFC5IUzmAGrzWkf0rjv-8" style="edgeStyle=orthogonalEdgeStyle;rounded=0;orthogonalLoop=1;jettySize=auto;html=1;exitX=0.5;exitY=1;exitDx=0;exitDy=0;entryX=0.5;entryY=0;entryDx=0;entryDy=0;" edge="1" parent="WIyWlLk6GJQsqaUBKTNV-1" source="MDFC5IUzmAGrzWkf0rjv-5" target="MDFC5IUzmAGrzWkf0rjv-7">
          <mxGeometry relative="1" as="geometry" />
        </mxCell>
        <mxCell id="MDFC5IUzmAGrzWkf0rjv-15" value="" style="edgeStyle=orthogonalEdgeStyle;rounded=0;orthogonalLoop=1;jettySize=auto;html=1;" edge="1" parent="WIyWlLk6GJQsqaUBKTNV-1" source="MDFC5IUzmAGrzWkf0rjv-5" target="MDFC5IUzmAGrzWkf0rjv-11">
          <mxGeometry relative="1" as="geometry" />
        </mxCell>
        <mxCell id="MDFC5IUzmAGrzWkf0rjv-5" value="登录否" style="rhombus;whiteSpace=wrap;html=1;" vertex="1" parent="WIyWlLk6GJQsqaUBKTNV-1">
          <mxGeometry x="180" y="340" width="80" height="80" as="geometry" />
        </mxCell>
        <mxCell id="MDFC5IUzmAGrzWkf0rjv-14" value="" style="edgeStyle=orthogonalEdgeStyle;rounded=0;orthogonalLoop=1;jettySize=auto;html=1;" edge="1" parent="WIyWlLk6GJQsqaUBKTNV-1" source="MDFC5IUzmAGrzWkf0rjv-7" target="MDFC5IUzmAGrzWkf0rjv-12">
          <mxGeometry relative="1" as="geometry" />
        </mxCell>
        <mxCell id="MDFC5IUzmAGrzWkf0rjv-7" value="登录页" style="rounded=1;whiteSpace=wrap;html=1;fontSize=12;glass=0;strokeWidth=1;shadow=0;" vertex="1" parent="WIyWlLk6GJQsqaUBKTNV-1">
          <mxGeometry x="160" y="440" width="120" height="30" as="geometry" />
        </mxCell>
        <mxCell id="MDFC5IUzmAGrzWkf0rjv-11" value="首页" style="rounded=1;whiteSpace=wrap;html=1;fontSize=12;glass=0;strokeWidth=1;shadow=0;" vertex="1" parent="WIyWlLk6GJQsqaUBKTNV-1">
          <mxGeometry x="310" y="365" width="120" height="30" as="geometry" />
        </mxCell>
        <mxCell id="MDFC5IUzmAGrzWkf0rjv-13" value="" style="edgeStyle=orthogonalEdgeStyle;rounded=0;orthogonalLoop=1;jettySize=auto;html=1;" edge="1" parent="WIyWlLk6GJQsqaUBKTNV-1" source="MDFC5IUzmAGrzWkf0rjv-12" target="MDFC5IUzmAGrzWkf0rjv-11">
          <mxGeometry relative="1" as="geometry" />
        </mxCell>
        <mxCell id="MDFC5IUzmAGrzWkf0rjv-12" value="角色选择(重启Act)" style="rounded=1;whiteSpace=wrap;html=1;fontSize=12;glass=0;strokeWidth=1;shadow=0;" vertex="1" parent="WIyWlLk6GJQsqaUBKTNV-1">
          <mxGeometry x="310" y="440" width="120" height="30" as="geometry" />
        </mxCell>
      </root>
    </mxGraphModel>
  </diagram>
</mxfile>
